solid OpenSCAD_Model
  facet normal -0 0 1
    outer loop
      vertex 0 12.7 1.9
      vertex 40 0 1.9
      vertex 40 12.7 1.9
    endloop
  endfacet
  facet normal 0 0 1
    outer loop
      vertex 40 0 1.9
      vertex 0 12.7 1.9
      vertex 0 0 1.9
    endloop
  endfacet
  facet normal 0 0 -1
    outer loop
      vertex 0 0 0
      vertex 40 12.7 0
      vertex 40 0 0
    endloop
  endfacet
  facet normal -0 0 -1
    outer loop
      vertex 40 12.7 0
      vertex 0 0 0
      vertex 0 12.7 0
    endloop
  endfacet
  facet normal 0 -1 0
    outer loop
      vertex 0 0 0
      vertex 40 0 1.9
      vertex 0 0 1.9
    endloop
  endfacet
  facet normal 0 -1 -0
    outer loop
      vertex 40 0 1.9
      vertex 0 0 0
      vertex 40 0 0
    endloop
  endfacet
  facet normal 1 -0 0
    outer loop
      vertex 40 0 1.9
      vertex 40 12.7 0
      vertex 40 12.7 1.9
    endloop
  endfacet
  facet normal 1 0 0
    outer loop
      vertex 40 12.7 0
      vertex 40 0 1.9
      vertex 40 0 0
    endloop
  endfacet
  facet normal 0 1 -0
    outer loop
      vertex 40 12.7 0
      vertex 0 12.7 1.9
      vertex 40 12.7 1.9
    endloop
  endfacet
  facet normal 0 1 0
    outer loop
      vertex 0 12.7 1.9
      vertex 40 12.7 0
      vertex 0 12.7 0
    endloop
  endfacet
  facet normal -1 0 0
    outer loop
      vertex 0 0 0
      vertex 0 12.7 1.9
      vertex 0 12.7 0
    endloop
  endfacet
  facet normal -1 -0 0
    outer loop
      vertex 0 12.7 1.9
      vertex 0 0 0
      vertex 0 0 1.9
    endloop
  endfacet
endsolid OpenSCAD_Model
