solid OpenSCAD_Model
  facet normal -0 0 1
    outer loop
      vertex 0 6.35 6.35
      vertex 139.7 0 6.35
      vertex 139.7 6.35 6.35
    endloop
  endfacet
  facet normal 0 0 1
    outer loop
      vertex 139.7 0 6.35
      vertex 0 6.35 6.35
      vertex 0 0 6.35
    endloop
  endfacet
  facet normal 0 0 -1
    outer loop
      vertex 0 0 0
      vertex 139.7 6.35 0
      vertex 139.7 0 0
    endloop
  endfacet
  facet normal -0 0 -1
    outer loop
      vertex 139.7 6.35 0
      vertex 0 0 0
      vertex 0 6.35 0
    endloop
  endfacet
  facet normal 0 -1 0
    outer loop
      vertex 0 0 0
      vertex 139.7 0 6.35
      vertex 0 0 6.35
    endloop
  endfacet
  facet normal 0 -1 -0
    outer loop
      vertex 139.7 0 6.35
      vertex 0 0 0
      vertex 139.7 0 0
    endloop
  endfacet
  facet normal 1 -0 0
    outer loop
      vertex 139.7 0 6.35
      vertex 139.7 6.35 0
      vertex 139.7 6.35 6.35
    endloop
  endfacet
  facet normal 1 0 0
    outer loop
      vertex 139.7 6.35 0
      vertex 139.7 0 6.35
      vertex 139.7 0 0
    endloop
  endfacet
  facet normal 0 1 -0
    outer loop
      vertex 139.7 6.35 0
      vertex 0 6.35 6.35
      vertex 139.7 6.35 6.35
    endloop
  endfacet
  facet normal 0 1 0
    outer loop
      vertex 0 6.35 6.35
      vertex 139.7 6.35 0
      vertex 0 6.35 0
    endloop
  endfacet
  facet normal -1 0 0
    outer loop
      vertex 0 0 0
      vertex 0 6.35 6.35
      vertex 0 6.35 0
    endloop
  endfacet
  facet normal -1 -0 0
    outer loop
      vertex 0 6.35 6.35
      vertex 0 0 0
      vertex 0 0 6.35
    endloop
  endfacet
endsolid OpenSCAD_Model
